<svg xmlns="http://www.w3.org/2000/svg" viewBox="0 0 48 48"><g>
<circle fill="#25D366" cx="24" cy="24" r="24"/>
<path fill="#FFF" d="M17.5 14C16.12 15.23 15 17.09 15 19.1c0 5.25 4.29 9.5 9.5 9.5 1.86 0 3.59-.49 5.04-1.34l3.73 1.22c.39.13.81-.09.94-.49.13-.4-.09-.82-.49-.95L36 21.7A10.25 10.25 0 0 0 24 9 10.25 10.25 0 0 0 13.78 19.8l1.71 3.59c.08.16.12.36.12.55 0 .29-.11.57-.31.77l-2.19 2.18c-.39.39-.38 1.01.01 1.4s1.01.38 1.4-.01l2.18-2.19c.2-.2.48-.31.77-.31.19 0 .39.04.55.12l3.59 1.71A10.25 10.25 0 0 0 24 39c5.62 0 10.24-4.62 10.24-10.24-.01-2.01-1.15-3.87-2.54-4.94"/>
</g></svg>